<svg width="822" height="126" viewBox="0 0 822 126" fill="none" xmlns="http://www.w3.org/2000/svg">
<path d="M81.3975 62.4921C81.392 57.4779 79.3977 52.6706 75.8521 49.125C72.3065 45.5795 67.4992 43.5851 62.485 43.5796C60.7431 43.5802 59.0095 43.822 57.3339 44.2982C53.3185 45.4457 49.794 47.8863 47.3074 51.2415C44.8802 54.4903 43.5686 58.4368 43.5684 62.4921C43.5739 67.5074 45.5687 72.3157 49.115 75.8621C52.6614 79.4085 57.4697 81.4032 62.485 81.4088C64.0898 81.4037 65.6873 81.1946 67.2393 80.7863L74.3079 91.2682L84.4723 84.5045L77.4287 74.0602C80.004 70.7543 81.4009 66.6827 81.3975 62.4921Z" fill="#E22901"/>
<path d="M62.5178 0C45.9371 0 30.0354 6.58668 18.311 18.311C6.58667 30.0354 0 45.9371 0 62.5178C0 79.0986 6.58667 95.0002 18.311 106.725C24.1164 112.53 31.0083 117.135 38.5933 120.277C46.1783 123.419 54.3079 125.036 62.5178 125.036C79.0986 125.036 95.0002 118.449 106.725 106.725C118.449 95.0002 125.036 79.0986 125.036 62.5178C125.036 45.9371 118.449 30.0354 106.725 18.311C95.0002 6.58668 79.0986 0 62.5178 0V0ZM91.3969 94.7854L81.3023 101.596L74.3045 91.226C70.5648 92.7618 66.5606 93.5505 62.5178 93.5475C54.2867 93.5475 46.3925 90.2788 40.5706 84.4601C34.7488 78.6414 31.4759 70.7489 31.4715 62.5178C31.4637 54.415 34.6365 46.6327 40.3073 40.845C43.1688 37.909 46.5824 35.5676 50.3519 33.9555C54.1984 32.3171 58.3369 31.475 62.5178 31.4798C70.7504 31.4798 78.6459 34.7496 84.468 40.5701C90.2901 46.3906 93.562 54.2853 93.5642 62.5178C93.5698 66.6016 92.767 70.6461 91.2018 74.4181C89.6367 78.1901 87.3402 81.6149 84.4449 84.4949L91.3969 94.7854Z" fill="#E22901"/>
<path d="M180.807 39.7459H206.694C208.453 39.7102 210.195 40.1002 211.77 40.8828C213.169 41.594 214.412 42.5778 215.425 43.7761C216.386 44.922 217.138 46.2278 217.648 47.6339C218.134 48.9335 218.391 50.3073 218.409 51.6946V69.5212C218.394 71.4518 217.903 73.3487 216.978 75.0437C215.965 76.9184 214.403 78.4382 212.501 79.3988L212.217 79.5205L216.887 84.7183H205.902L188.076 64.7295H199.06L206.542 73.0844H207.659C208.213 73.1008 208.764 72.9823 209.263 72.7392C209.693 72.5173 210.078 72.2178 210.4 71.8559C210.703 71.525 210.941 71.1392 211.1 70.719C211.254 70.3382 211.333 69.9317 211.334 69.5212V50.8214C211.329 50.3951 211.228 49.9754 211.039 49.5931C210.841 49.1582 210.566 48.7628 210.227 48.4257C209.861 48.0649 209.435 47.7694 208.968 47.5526C208.447 47.3103 207.878 47.189 207.303 47.1974H180.827C180.262 47.1868 179.703 47.3083 179.193 47.5526C178.749 47.7625 178.352 48.0595 178.026 48.4257C177.722 48.7566 177.484 49.1424 177.325 49.5626C177.172 49.9433 177.092 50.3501 177.092 50.7607V69.5212C177.092 69.9317 177.172 70.3382 177.325 70.719C177.484 71.1392 177.722 71.525 178.026 71.8559C178.352 72.2252 178.749 72.5256 179.193 72.7392C179.704 72.9799 180.263 73.0982 180.827 73.0844H185.619L192.106 80.5662H180.827C179.209 80.6058 177.604 80.2578 176.148 79.551C174.856 78.8965 173.707 77.9927 172.767 76.8914C171.882 75.8314 171.194 74.621 170.737 73.3179C170.288 72.1122 170.051 70.8381 170.036 69.5516V50.7909C170.051 49.5045 170.288 48.2304 170.737 47.0246C171.192 45.7235 171.88 44.5161 172.767 43.4614C173.702 42.3545 174.852 41.4496 176.148 40.8017C177.595 40.0841 179.192 39.7221 180.807 39.7459Z" fill="black"/>
<path d="M231.932 39.7471H239.038V68.6695C239.05 69.19 239.149 69.7048 239.332 70.1923C239.525 70.732 239.821 71.2287 240.205 71.6541C240.623 72.0987 241.118 72.4634 241.667 72.7302C242.299 73.0366 242.996 73.1862 243.698 73.1667H268.712C269.413 73.1835 270.109 73.0339 270.742 72.7302C271.272 72.4804 271.748 72.1273 272.14 71.6915C272.532 71.2557 272.833 70.746 273.026 70.1923C273.209 69.7048 273.309 69.19 273.32 68.6695V39.7979H280.427V68.6695C280.408 70.0568 280.151 71.4305 279.665 72.7302C279.16 74.1456 278.411 75.4616 277.452 76.6184C276.439 77.8167 275.196 78.8003 273.798 79.5115C272.224 80.2988 270.481 80.6892 268.722 80.6487H243.708C241.948 80.6892 240.206 80.2988 238.632 79.5115C237.233 78.8003 235.99 77.8167 234.977 76.6184C234.011 75.4646 233.258 74.1479 232.754 72.7302C232.268 71.4305 232.011 70.0568 231.992 68.6695L231.932 39.7471Z" fill="black"/>
<path d="M291.479 80.5978L311.783 39.7471H319.204L339.426 80.5978H330.361L315.458 50.5586L300.616 80.5978H291.479Z" fill="black"/>
<path d="M351.749 39.7471H358.855V80.5978H351.749V39.7471Z" fill="black"/>
<path d="M403.763 80.5978V39.7471H411.356L445.081 71.4206V39.7471H452.187V80.5978H444.817L410.869 48.9243V80.5978H403.763Z" fill="black"/>
<path d="M465.709 39.7471H510.012V47.2288H465.709V39.7471ZM465.709 56.467H510.012V63.888H472.785V73.1159H510.012V80.5978H465.709V56.467Z" fill="black"/>
<path d="M522.413 39.7471H570.796V47.2288H550.137V80.5978H543.031V47.2288H522.342L522.413 39.7471Z" fill="black"/>
<path d="M590.144 39.7471L600.895 70.2024L608.732 48.0512H617.868L625.695 70.2024L636.446 39.7471H645.562L629.431 80.5978H622.061L613.351 58.6295L604.651 80.5978H597.23L580.987 39.7471H590.144Z" fill="black"/>
<path d="M656.814 51.7258C656.833 50.3385 657.09 48.9647 657.576 47.6651C658.078 46.2576 658.827 44.9511 659.789 43.8074C660.802 42.6091 662.045 41.6253 663.443 40.914C665.019 40.1314 666.76 39.7415 668.519 39.7771H693.422C695.18 39.7415 696.922 40.1314 698.498 40.914C699.898 41.632 701.146 42.6146 702.173 43.8074C703.15 44.9469 703.914 46.2539 704.426 47.6651C704.912 48.9647 705.169 50.3385 705.188 51.7258V68.6691C705.169 70.0564 704.912 71.4301 704.426 72.7298C703.919 74.1526 703.155 75.4705 702.173 76.618C701.146 77.8107 699.898 78.7931 698.498 79.5111C696.924 80.2983 695.181 80.6888 693.422 80.6482H668.519C666.76 80.6888 665.017 80.2983 663.443 79.5111C662.045 78.7998 660.802 77.8163 659.789 76.618C658.823 75.4661 658.073 74.1488 657.576 72.7298C657.09 71.4301 656.833 70.0564 656.814 68.6691V51.7258ZM663.921 68.6183C663.933 69.1388 664.032 69.6536 664.215 70.141C664.407 70.6808 664.704 71.1774 665.088 71.6028C665.508 72.0451 666.003 72.4095 666.55 72.679C667.182 72.9853 667.878 73.135 668.58 73.1154H693.483C694.136 73.1303 694.786 73.0029 695.385 72.7417C695.985 72.4805 696.52 72.0917 696.954 71.6028C697.325 71.1713 697.614 70.676 697.807 70.141C697.987 69.6532 698.084 69.1383 698.092 68.6183V51.7258C698.084 51.209 697.988 50.6973 697.807 50.2132C697.616 49.6772 697.327 49.1812 696.954 48.7512C696.558 48.294 696.07 47.9243 695.523 47.6651C694.89 47.3625 694.194 47.2128 693.493 47.2284H668.59C667.888 47.2089 667.192 47.3588 666.56 47.6651C666.01 47.9345 665.515 48.3026 665.098 48.7512C664.712 49.1751 664.415 49.6724 664.225 50.2132C664.041 50.6969 663.942 51.2085 663.931 51.7258L663.921 68.6183Z" fill="black"/>
<path d="M755.367 39.7487C757.126 39.7131 758.867 40.103 760.443 40.8856C761.842 41.5969 763.084 42.5807 764.098 43.779C765.059 44.9249 765.811 46.2306 766.321 47.6367C766.799 48.9381 767.053 50.3111 767.072 51.6974V56.0831C767.052 57.4693 766.798 58.8422 766.321 60.1438C765.816 61.5615 765.064 62.8779 764.098 64.0317C763.084 65.23 761.842 66.2138 760.443 66.9251C758.869 67.7123 757.126 68.1025 755.367 68.062H752.799L766.412 80.569H755.54L735.236 62.042V60.5802H755.397C756.099 60.597 756.795 60.4475 757.428 60.1438C757.974 59.8821 758.463 59.5165 758.87 59.0676C759.239 58.6372 759.525 58.1414 759.712 57.6058C759.895 57.1184 759.995 56.6036 760.006 56.0831V51.6974C760.002 50.8467 759.757 50.0145 759.301 49.2963C758.845 48.5781 758.196 48.0029 757.428 47.6367C756.795 47.333 756.099 47.1835 755.397 47.2002H725.764V80.569H718.658V39.7183L755.367 39.7487Z" fill="black"/>
<path d="M780.244 39.7471H787.35V56.4874H792.375L810.963 39.7674H821.835L799.623 60.1624L821.835 80.6182H810.963L792.375 63.9084H787.35V80.6182H780.244V39.7471Z" fill="black"/>
</svg>
